<svg width="416" height="416" viewBox="0 0 416 416" fill="none" xmlns="http://www.w3.org/2000/svg">
<path d="M208 0C93.13 0 0 93.13 0 208C0 322.87 93.13 416 208 416C322.87 416 416 322.87 416 208C416 93.13 322.87 0 208 0ZM299.36 212.65C297.88 214.142 296.121 215.328 294.183 216.14C292.244 216.952 290.165 217.374 288.064 217.383C285.962 217.391 283.88 216.985 281.935 216.189C279.99 215.392 278.222 214.22 276.73 212.74L224 160.42V294C224 298.243 222.314 302.313 219.314 305.314C216.313 308.314 212.243 310 208 310C203.757 310 199.687 308.314 196.686 305.314C193.686 302.313 192 298.243 192 294V160.42L139.27 212.74C137.777 214.22 136.007 215.391 134.061 216.187C132.115 216.983 130.032 217.388 127.929 217.379C125.827 217.37 123.747 216.946 121.808 216.133C119.87 215.32 118.11 214.133 116.63 212.64C115.15 211.147 113.979 209.377 113.183 207.431C112.387 205.485 111.982 203.402 111.991 201.299C112 199.197 112.424 197.117 113.237 195.178C114.05 193.24 115.237 191.48 116.73 190L196.73 110.61C199.727 107.636 203.778 105.967 208 105.967C212.222 105.967 216.273 107.636 219.27 110.61L299.27 190C300.765 191.48 301.953 193.241 302.767 195.181C303.581 197.121 304.004 199.202 304.013 201.306C304.021 203.41 303.614 205.495 302.816 207.442C302.018 209.388 300.843 211.158 299.36 212.65Z" fill="white"/>
</svg>
